<svg width="380" height="150" xmlns="http://www.w3.org/2000/svg">
 <!-- Created with Method Draw - http://github.com/duopixel/Method-Draw/ -->
 <g>
  <title>Layer 1</title>
  <style type="text/css">.st0{display:none;fill:#040006;}
	.st1{fill:#3BA4CF;}
	.st2{fill:#AF4585;}</style>
  <g id="svg_57">
   <g transform="matrix(0.630295, 0, 0, 0.630295, -2521.17, -620.598)" id="svg_5">
    <g id="svg_7"/>
    <g id="svg_41">
     <g id="svg_42">
      <path id="svg_43" d="m4318.093262,1215.611816c-1.099609,0 -2.199707,0 -3.299805,-0.100098c-13.799805,-0.899902 -25.100098,-7.300049 -31.799805,-18c-6,-9.5 -7,-22 -2.700195,-32.800049c4.299805,-10.699951 18.100098,-22.099854 31.799805,-22.099854c1.5,0 2.900391,0.099854 4.300293,0.399902c0.899902,0.199951 1.5,0.400024 2,0.800049c1.299805,1 1.399902,3 1,4.399902c-0.5,1.600098 -1.600098,2.900146 -2.899902,4.300049c-5,5.400024 -7.800293,13.800049 -2.400391,19.699951c2.400391,2.5 6.100098,3.900146 10.600098,3.900146l0.200195,0c8.299805,-0.100098 15.799805,-5.200073 21.600098,-14.700073c6.5,-10.5 10.799805,-23 12.399902,-35.900024c0.199707,-1.899902 0.199707,-6.800049 0.100098,-9.399902l0,-1l-0.800293,0.599854c-0.899902,0.700073 -1.899902,1.400146 -2.799805,2.200073c-7.600098,6 -17.100098,13.5 -30.899902,13.5c-3.5,0 -7.200195,-0.5 -10.900391,-1.5c-10.699707,-2.799927 -20.5,-11.900024 -24.899902,-23.200073c-6.699707,-17.399902 -4.299805,-40.5 6.700195,-63.399902c10.299805,-21.400024 26.600098,-39 42.699707,-46c7.700195,-3.400024 15.800293,-5.100098 23.5,-5.100098c9.5,0 17.700195,2.800049 22.900391,7.800049c5.699707,5.400024 8.5,14.199951 7.199707,23c-0.5,3.5 -1.899902,8.400024 -5.699707,12.199951c-2.700195,2.700073 -6.400391,4.300049 -9.900391,4.300049c-0.599609,0 -1.199707,0 -1.699707,-0.099976c-3.5,-0.5 -6.600098,-2.900024 -7.600098,-5.900024c-1.200195,-3.5 0.100098,-7.300049 1.5,-10.5l0.5,-1.199951c1.399902,-3.100098 2.799805,-6.300049 2.700195,-9.699951c-0.100098,-1.700073 -0.5,-2.900146 -1.400391,-3.800049c-1.099609,-1.199951 -2.5,-1.800049 -4.299805,-1.800049c-3.299805,0 -7.100098,2.100098 -9.5,4c-22.799805,18.199951 -29.899902,51.400024 -26.700195,76.199951c0.900391,7.5 4.600098,13.300049 9.900391,15.5c1.5,0.600098 3.199707,1 4.899902,1c2.899902,0 5.799805,-0.899902 8.100098,-2.5c5.399902,-3.799927 7.5,-9.799927 9.5,-15.699951c1.899902,-5.399902 3.599609,-10.5 7.699707,-14.199951c3.700195,-3.400024 9,-5.600098 15.700195,-6.400024c0.5,-0.099976 0.899902,-0.099976 1.299805,-0.099976c1.300293,0 2.399902,0.300049 3.100098,1c0.899902,0.899902 1.299805,2.300049 1.200195,4.399902c-0.800293,13.200073 -2.200195,26.5 -3.5,38c-1.600098,14.800049 -3.5,26.700073 -6,37.600098c-4.600098,20.099976 -10.700195,35.099976 -19.300293,47.5c-1,1.5 -2.199707,3 -3.600098,4.699951c-9.799805,11.200073 -24.899902,18.100098 -40.5,18.100098z" class="st1"/>
      <path id="svg_44" d="m4361.593262,993.411743c9,0 16.900391,2.5 22.100098,7.400024c5.399902,5.199951 8,13.5 6.800293,21.899902c-0.5,3.300049 -1.800293,8 -5.400391,11.5c-2.5,2.5 -5.899902,3.900146 -9.099609,3.900146c-0.5,0 -1,0 -1.600098,-0.100098c-3.100098,-0.5 -5.700195,-2.5 -6.600098,-5.099976c-1,-3.099976 0.200195,-6.599976 1.5,-9.599976l0.5,-1.199951c1.399902,-3.200073 2.899902,-6.600098 2.799805,-10.300049c-0.099609,-2 -0.599609,-3.5 -1.699707,-4.600098c-1.5,-1.599854 -3.300293,-2.199951 -5.200195,-2.199951c-3.699707,0 -7.799805,2.300049 -10.299805,4.300049c-23.100098,18.5 -30.300293,52.199951 -27.100098,77.300049c1,8 5,14.099854 10.600098,16.5c1.699707,0.699951 3.5,1.099854 5.399902,1.099854c3.100098,0 6.200195,-0.899902 8.799805,-2.799927c5.700195,-4 7.900391,-10.200073 9.900391,-16.299927c1.799805,-5.200073 3.5,-10.200073 7.299805,-13.700073c3.5,-3.200073 8.5,-5.299927 15,-6.099976c0.399902,0 0.700195,-0.100098 1.100098,-0.100098c0.799805,0 1.699707,0.100098 2.199707,0.600098c0.800293,0.699951 0.900391,2.199951 0.800293,3.399902c-0.800293,13.100098 -2.200195,26.5 -3.5,37.900146c-1.600098,14.699951 -3.5,26.599854 -6,37.5c-4.5,19.899902 -10.600098,34.799927 -19.100098,47c-1,1.399902 -2.200195,3 -3.600098,4.599854c-9.5,11.400146 -24.299805,18.100098 -39.399902,18.100098c-1.100098,0 -2.200195,0 -3.200195,-0.100098c-13.299805,-0.899902 -24.299805,-7.099854 -30.899902,-17.399902c-5.799805,-9.100098 -6.799805,-21.300049 -2.600098,-31.699951c4.300293,-10.700073 17.900391,-21.300049 30.700195,-21.300049c1.399902,0 2.700195,0.099976 4.100098,0.399902c0.699707,0.100098 1.199707,0.300049 1.5,0.600098c0.799805,0.599976 0.899902,2 0.600098,3.099976c-0.400391,1.400024 -1.5,2.5 -2.700195,3.799927c-5.399902,5.800049 -8.399902,14.900146 -2.399902,21.400146c2.600098,2.799927 6.699707,4.299927 11.5,4.299927l0.199707,0c8.800293,-0.099976 16.600098,-5.400024 22.700195,-15.299927c6.600098,-10.700073 10.899902,-23.300049 12.600098,-36.400146c0.299805,-2.599854 0.199707,-9.299927 0.199707,-9.599854l-0.099609,-3.400146l-2.700195,2.100098c-0.899902,0.699951 -1.899902,1.399902 -2.799805,2.199951c-7.600098,6 -16.800293,13.199951 -30.100098,13.199951c-3.300293,0 -6.800293,-0.399902 -10.600098,-1.399902c-10.399902,-2.699951 -19.799805,-11.5 -24,-22.400024c-6.600098,-17.099976 -4.200195,-39.799927 6.700195,-62.400024c10.199707,-21.099976 26.299805,-38.5 42,-45.399902c7.899902,-3.5 15.899902,-5.200073 23.099609,-5.200073m0,-2.5c-7.799805,0 -16.099609,1.799927 -24,5.200073c-16.299805,7.099854 -32.899902,25 -43.299805,46.599854c-11.200195,23.200073 -13.600098,46.700073 -6.799805,64.400146c4.5,11.699951 14.599609,21.099854 25.699707,23.899902c3.800293,1 7.600098,1.5 11.200195,1.5c14.199707,0 23.899902,-7.599976 31.699707,-13.800049c0.5,-0.399902 1.100098,-0.899902 1.600098,-1.299927c0,2.599976 0,6.200073 -0.199707,7.700073c-1.600098,12.799927 -5.900391,25 -12.200195,35.399902c-5.600098,9.100098 -12.700195,14 -20.600098,14.100098l-0.199707,0c-4.100098,0 -7.600098,-1.300049 -9.700195,-3.5c-4.899902,-5.300049 -2.200195,-13 2.399902,-18c1.300293,-1.5 2.600098,-2.900146 3.200195,-4.700073c0.600098,-1.799927 0.399902,-4.400024 -1.399902,-5.799927c-0.600098,-0.5 -1.5,-0.800049 -2.5,-1c-1.5,-0.300049 -3,-0.400146 -4.600098,-0.400146c-14.200195,0 -28.5,11.800049 -33,22.900146c-4.5,11.099854 -3.399902,24.099854 2.799805,33.899902c7,11.100098 18.600098,17.699951 32.800293,18.600098c1.099609,0.099854 2.299805,0.099854 3.399902,0.099854c15.899902,0 31.399902,-7.099854 41.299805,-19c1.399902,-1.699951 2.600098,-3.299927 3.700195,-4.799927c8.699707,-12.5 14.799805,-27.700073 19.5,-47.900024c2.5,-10.899902 4.399902,-22.899902 6,-37.699951c1.299805,-11.5 2.699707,-24.900024 3.5,-38c0.100098,-2.400024 -0.399902,-4.199951 -1.600098,-5.400024c-0.899902,-0.900024 -2.200195,-1.299927 -3.899902,-1.299927c-0.399902,0 -0.899902,0 -1.5,0.099854c-7,0.900146 -12.5,3.200073 -16.399902,6.800049c-4.300293,3.900024 -6.200195,9.400024 -8,14.699951c-2,5.900146 -4,11.5 -9,15c-2.100098,1.5 -4.800293,2.300049 -7.400391,2.300049c-1.599609,0 -3.099609,-0.300049 -4.399902,-0.899902c-4.799805,-2 -8.199707,-7.400146 -9.100098,-14.5c-3.099609,-24.400146 3.900391,-57.100098 26.300293,-75.100098c2.199707,-1.699951 5.699707,-3.699951 8.699707,-3.699951c1.400391,0 2.5,0.5 3.400391,1.399902c0.599609,0.700073 1,1.700073 1,3c0.099609,3.100098 -1.200195,6.100098 -2.600098,9.200073l-0.5,1.200073c-1.5,3.5 -2.899902,7.599854 -1.600098,11.399902c1.200195,3.400024 4.600098,6.199951 8.600098,6.800049c0.600098,0.099976 1.299805,0.099976 1.899902,0.099976c3.899902,0 7.899902,-1.700073 10.799805,-4.599976c4,-4 5.5,-9.199951 6.100098,-12.900024c1.399902,-9.099976 -1.5,-18.299927 -7.5,-24.099976c-5.299805,-5 -13.699707,-7.900024 -23.600098,-7.900024l0,0z" class="st2"/>
     </g>
     <g id="svg_45">
      <path id="svg_46" d="m4230.793457,1152.911743c-7.600098,0 -15.200195,-1.700073 -22,-4.799927c-0.899902,-0.400146 -1.899902,-0.900146 -2.799805,-1.400146c-3.800293,-1.899902 -7.800293,-3.799927 -12.100098,-3.799927c-0.300293,0 -0.600098,0 -0.899902,0c-3.800293,0.299927 -7.200195,2.099976 -10.5,3.900024c-2,1.099976 -3.800293,2 -5.800293,2.800049c-3.799805,1.399902 -7.600098,2.099854 -11.399902,2.099854c-2.5,0 -5,-0.299927 -7.299805,-1c-8.300293,-2.399902 -14.800293,-9.399902 -15.900391,-17.099854c-0.699707,-5 0.800293,-10.200073 2.100098,-14.700073c1.300293,-4.799927 2.800293,-9.599976 4.200195,-14.299927l0.100098,-0.400146c2.899902,-9.699951 5.899902,-19.699951 8.199707,-29.799927c2.899902,-12.799927 4.399902,-26 -3.699707,-36l-0.200195,-0.299927c-0.799805,-0.900146 -1.600098,-1.900146 -1.700195,-3c-0.5,-4.5 3.800293,-7.600098 12.900391,-9.100098c3.199707,-0.5 6,-0.800049 8.599609,-0.800049c5.900391,0 10.5,1.400146 14.100098,4.300049c8,6.5 5.600098,16.600098 3.399902,25.5l0,0.100098c-0.199707,0.799927 -0.399902,1.699951 -0.599609,2.5c-4.600098,19.799927 -9.700195,43.399902 -12.600098,68c-0.300293,2.399902 -0.5,5.099854 1.100098,6.899902c1.299805,1.5 3.099609,1.699951 4,1.699951c1,0 2,-0.199951 2.899902,-0.699951c1.899902,-0.899902 3.5,-2.599976 4.899902,-5.199951c1.899902,-3.400024 3,-7.300049 4.200195,-11c0.699707,-2.300049 1.399902,-4.600098 2.199707,-6.800049c3.600098,-9.399902 10.399902,-17.199951 19.100098,-22.199951c6.600098,-3.800049 14.200195,-5.800049 21.799805,-5.800049c2.400391,0 4.700195,0.199951 7,0.600098c8.300293,1.299927 17.200195,6.399902 18.400391,14.599854c1.199707,7.5 -4.5,13.900146 -6.900391,16.300049c-5.5,5.300049 -12.699707,8.800049 -20.199707,10c-1.600098,0.199951 -3.600098,0.5 -4.800293,1.900024c-0.199707,0.200073 -0.299805,0.400024 -0.5,0.700073c-0.399902,0.799927 -0.399902,1.699951 -0.099609,2.599854c0.699707,1.900146 2.899902,3.300049 4.5,4c3.299805,1.300049 6.599609,2 9.799805,2c7,0 12.799805,-3 17.399902,-5.399902c2.800293,-1.5 5.200195,-2.699951 7.300293,-3c0.299805,0 0.599609,-0.100098 0.899902,-0.100098c0.600098,0 1,0.100098 1.399902,0.300049c1.100098,0.5 1.799805,2.100098 1.5,3.699951c-0.299805,1.5 -1.299805,2.800049 -2.299805,3.900146c-7.400391,8.699951 -17.600098,14.799927 -28.700195,17.199951c-3.399902,0.699951 -7.200195,1.099976 -11,1.099976zm-4.600098,-43.199951c1,0.700073 2.300293,1.099976 3.800293,1.099976c0.5,0 1,0 1.5,-0.099976c2.599609,-0.400024 5.199707,-1.299927 7.5,-2.700073c2.899902,-1.699951 4.799805,-4.399902 5,-6.899902c0.099609,-1.900024 -0.700195,-3.600098 -2.5,-5c-1.200195,-0.900024 -2.600098,-1.400024 -4.100098,-1.400024c-0.399902,0 -0.800293,0 -1.200195,0.099976c-3.799805,0.600098 -7.799805,3.800049 -9.899902,6.699951c-1,1.400146 -1.600098,2.700073 -1.700195,4.100098c-0.299805,1.699951 0.300293,3.099976 1.600098,4.099976l0,0z" class="st1"/>
      <path id="svg_47" d="m4172.593262,1026.411743c5.700195,0 10,1.299927 13.300293,4c7.399902,6 5.199707,15.299927 3,24.200073c-0.200195,0.899902 -0.399902,1.799927 -0.600098,2.599854c-4.600098,19.900146 -9.700195,43.5 -12.700195,68.100098c-0.299805,2.599976 -0.5,5.699951 1.400391,7.899902c1.299805,1.5 3.099609,2.200073 5,2.200073c1.199707,0 2.399902,-0.299927 3.5,-0.799927c2.099609,-1 3.899902,-2.900146 5.5,-5.700073c2,-3.599976 3.099609,-7.5 4.299805,-11.200073c0.700195,-2.199951 1.299805,-4.5 2.200195,-6.699951c3.5,-9.099976 10.099609,-16.800049 18.599609,-21.599976c6.5,-3.700073 13.800293,-5.599976 21.200195,-5.599976c2.299805,0 4.600098,0.199951 6.799805,0.599976c7.800293,1.299927 16.200195,6 17.400391,13.599976c1.099609,6.900024 -4.200195,12.900024 -6.600098,15.199951c-5.300293,5.100098 -12.200195,8.5 -19.5,9.600098c-1.700195,0.300049 -4.100098,0.599976 -5.5,2.300049c-0.300293,0.299927 -0.5,0.599854 -0.600098,1c-0.5,1.099854 -0.600098,2.399902 -0.100098,3.599854c0.899902,2.300049 3.300293,3.900146 5.200195,4.700073c3.699707,1.5 7.100098,2.099976 10.299805,2.099976c7.300293,0 13.200195,-3.099976 18,-5.599976c2.700195,-1.400024 5,-2.599976 6.800293,-2.900024c0.199707,0 0.5,-0.099976 0.799805,-0.099976c0.299805,0 0.600098,0 0.899902,0.200073c0.600098,0.299927 1,1.299927 0.800293,2.299927c-0.300293,1.200073 -1.200195,2.400024 -2,3.299927c-7.200195,8.5 -17.200195,14.400146 -28,16.800049c-3.600098,0.800049 -7.300293,1.199951 -11,1.199951c-7.400391,0 -14.800293,-1.599854 -21.5,-4.699951c-0.900391,-0.399902 -1.900391,-0.899902 -2.800293,-1.300049c-4,-2 -8.100098,-4 -12.600098,-4c-0.299805,0 -0.699707,0 -1,0c-4.099609,0.300049 -7.599609,2.200073 -11,4c-1.899902,1 -3.699707,2 -5.599609,2.700073c-2.800293,1 -6.700195,2 -10.900391,2c-2.199707,0 -4.599609,-0.299927 -7,-0.900024c-7.799805,-2.199951 -14,-8.800049 -15,-16.099976c-0.599609,-4.700073 0.800293,-9.799927 2,-14.200073c1.400391,-4.899902 2.900391,-9.899902 4.300293,-14.699951c2.899902,-9.699951 6,-19.800049 8.199707,-29.800049c2.900391,-13.099854 4.5,-26.699951 -4,-37l-0.199707,-0.299927c-0.700195,-0.799927 -1.300293,-1.599976 -1.399902,-2.400024c-0.400391,-3.699951 3.5,-6.300049 11.799805,-7.699951c3,-0.599976 5.799805,-0.900024 8.299805,-0.900024m52.900391,84.300049l0,0c1.199707,0.799927 2.799805,1.299927 4.5,1.299927c0.5,0 1.099609,0 1.699707,-0.099854c2.800293,-0.400146 5.5,-1.400146 7.899902,-2.800049c3.200195,-1.900024 5.400391,-5 5.600098,-7.900024c0.100098,-1.599976 -0.299805,-4 -3,-6c-1.399902,-1.099976 -3.100098,-1.700073 -4.899902,-1.700073c-0.5,0 -0.899902,0 -1.399902,0.100098c-4.300293,0.599976 -8.600098,4.199951 -10.700195,7.199951c-1.100098,1.600098 -1.799805,3.100098 -1.899902,4.600098c-0.299805,2.199951 0.5,4.099854 2.200195,5.299927m-52.900391,-86.800049c-2.699707,0 -5.599609,0.299927 -8.799805,0.799927c-9.799805,1.700073 -14.5,5.200073 -13.899902,10.5c0.199707,1.5 1.100098,2.600098 2,3.700073l0.199707,0.299927c7.800293,9.600098 6.300293,22.400146 3.5,34.900146c-2.199707,9.899902 -5.199707,20 -8.099609,29.699951l-0.100098,0.199951c-1.399902,4.800049 -2.899902,9.699951 -4.300293,14.5c-1.299805,4.699951 -2.799805,10 -2.099609,15.199951c1.099609,8.200073 8,15.700073 16.799805,18.200073c2.399902,0.700073 5,1 7.600098,1c3.899902,0 7.799805,-0.700073 11.799805,-2.200073c2.100098,-0.699951 3.899902,-1.799927 5.899902,-2.799927c3.300293,-1.799927 6.400391,-3.5 10,-3.700073c0.300293,0 0.600098,0 0.800293,0c3.899902,0 7.600098,1.800049 11.5,3.700073l0.100098,0c0.899902,0.400024 1.899902,0.900024 2.799805,1.299927c7,3.200073 14.799805,4.900146 22.5,4.900146c3.899902,0 7.799805,-0.400146 11.5,-1.200073c11.399902,-2.5 21.799805,-8.799927 29.399902,-17.599976c1.100098,-1.300049 2.200195,-2.699951 2.5,-4.5c0.399902,-2.100098 -0.5,-4.199951 -2.100098,-5c-0.599609,-0.300049 -1.199707,-0.400024 -2,-0.400024c-0.299805,0 -0.699707,0 -1.099609,0.099976c-2.300293,0.300049 -4.800293,1.600098 -7.700195,3.100098c-4.5,2.399902 -10.100098,5.299927 -16.799805,5.299927c-3.100098,0 -6.200195,-0.599976 -9.400391,-1.900024c-1.5,-0.599976 -3.299805,-1.800049 -3.799805,-3.300049c-0.200195,-0.599854 -0.200195,-1.099854 0,-1.599854c0.100098,-0.200073 0.200195,-0.300049 0.299805,-0.400146c0.800293,-1 2.600098,-1.199951 4,-1.399902c7.800293,-1.199951 15.200195,-4.800049 20.900391,-10.300049c2.599609,-2.5 8.599609,-9.300049 7.299805,-17.399902c-1.399902,-8.900146 -10.799805,-14.300049 -19.5,-15.700073c-2.399902,-0.400024 -4.799805,-0.599976 -7.200195,-0.599976c-7.899902,0 -15.599609,2.099976 -22.5,6c-9,5.099976 -15.899902,13.199951 -19.699707,22.899902c-0.899902,2.200073 -1.600098,4.600098 -2.200195,6.900146c-1.100098,3.699951 -2.199707,7.399902 -4.100098,10.699951c-1.299805,2.399902 -2.799805,3.899902 -4.399902,4.699951c-0.699707,0.300049 -1.600098,0.5 -2.399902,0.5c-0.899902,0 -2.200195,-0.199951 -3.100098,-1.300049c-1.100098,-1.299927 -1.199707,-3.299927 -0.799805,-6c3,-24.599854 8,-48.099854 12.600098,-67.899902c0.199707,-0.800049 0.399902,-1.600098 0.599609,-2.5l0,-0.100098c2.200195,-9.299927 4.800293,-19.799927 -3.899902,-26.799927c-3.5,-3 -8.399902,-4.5 -14.600098,-4.5l0,0zm54.300293,84.700073c-0.899902,-0.700073 -1.200195,-1.700073 -1.100098,-3c0.100098,-1.100098 0.600098,-2.200073 1.5,-3.5c1.899902,-2.700073 5.600098,-5.700073 9,-6.200073c0.299805,-0.099976 0.700195,-0.099976 1,-0.099976c1.299805,0 2.399902,0.399902 3.399902,1.099976c1.399902,1.099976 2.100098,2.400024 2,3.900024c-0.100098,2.099976 -1.899902,4.399902 -4.399902,5.899902c-2.200195,1.300049 -4.5,2.100098 -7,2.5c-0.399902,0.100098 -0.899902,0.100098 -1.299805,0.100098c-1.200195,0.199951 -2.300293,-0.099976 -3.100098,-0.699951l0,0l0,0z" class="st2"/>
     </g>
     <g id="svg_48">
      <path id="svg_49" d="m4420.093262,1088.511719c-8.599609,0 -15.599609,-7 -15.599609,-15.599854s7,-15.600098 15.599609,-15.600098c8.600098,0 15.600098,7 15.600098,15.600098s-7,15.599854 -15.600098,15.599854z" class="st1"/>
      <path id="svg_50" d="m4420.093262,1058.611816c7.900391,0 14.400391,6.399902 14.400391,14.399902s-6.400391,14.400024 -14.400391,14.400024c-7.899902,0 -14.399902,-6.400024 -14.399902,-14.400024s6.5,-14.399902 14.399902,-14.399902m0,-2.5c-9.299805,0 -16.899902,7.599854 -16.899902,16.899902s7.600098,16.900024 16.899902,16.900024c9.300293,0 16.900391,-7.599976 16.900391,-16.900024s-7.600098,-16.899902 -16.900391,-16.899902l0,0z" class="st2"/>
     </g>
     <g id="svg_51">
      <path id="svg_52" d="m4052.593262,1215.611816c-1.099609,0 -2.199707,0 -3.299805,-0.100098c-13.799805,-0.899902 -25.100098,-7.300049 -31.799805,-18c-6,-9.5 -7,-22 -2.700195,-32.800049c2.799805,-7 9.399902,-13.899902 17.200195,-18.099854c4.899902,-2.600098 9.899902,-4 14.599609,-4c1.5,0 2.900391,0.099854 4.300293,0.399902c0.899902,0.199951 1.5,0.400024 2,0.800049c1.299805,1 1.399902,3 1,4.399902c-0.5,1.600098 -1.600098,2.900146 -2.899902,4.300049c-5,5.400024 -7.800293,13.800049 -2.400391,19.699951c2.400391,2.5 6.100098,3.900146 10.600098,3.900146l0.200195,0c8.299805,-0.100098 15.799805,-5.200073 21.600098,-14.700073c5.599609,-9.099976 9.399902,-18.799927 11.299805,-28.799927c1.399902,-7 3.399902,-25.200073 1.600098,-28c-0.200195,-0.300049 -0.5,-0.5 -1.600098,-0.5c-0.799805,0 -1.799805,0.199951 -2.899902,0.299927c-1.200195,0.200073 -2.5,0.400024 -3.700195,0.400024c-3.799805,0 -5.799805,-2.100098 -6.100098,-6.199951c-0.199707,-3.800049 0.200195,-9 5.800293,-10.100098c0.399902,-0.099976 0.899902,-0.199951 1.299805,-0.300049c3.200195,-0.599854 6.899902,-1.299927 8.600098,-3.899902c0.5,-1 1.399902,-8.5 2.100098,-15.100098c1,-9.199951 2.199707,-19.599854 3.699707,-25.399902c0.900391,-3.400024 1.900391,-6.800049 2.900391,-10c0.899902,-3.100098 1.899902,-6.199951 2.699707,-9.300049c0.600098,-2.199951 0.399902,-4 -0.600098,-5.300049c-1.399902,-1.799927 -4.599609,-2.799927 -8.899902,-2.799927c-8.600098,0 -19.100098,3.700073 -22.100098,6.799927c-5.199707,5.400146 -6.699707,15 -3.5,21.400146c1.5,2.899902 3.900391,4.199951 6.400391,5.699951c2.399902,1.399902 4.799805,2.800049 6.399902,5.399902c1.799805,3.100098 0.600098,6.900146 -0.5,9.5c-3.700195,8.800049 -18.200195,20.800049 -29.300293,21.800049c-0.5,0 -1,0.100098 -1.399902,0.100098c-4.799805,0 -9.399902,-2.100098 -13.299805,-6c-15.899902,-16 -14.200195,-45.900146 -3.399902,-64.400146c5.199707,-8.899902 12.299805,-15.899902 20.5,-20c6.699707,-3.399902 14.099609,-5 22.599609,-5c7.5,0 15.200195,1.300049 22.600098,2.5c7.399902,1.200073 15.100098,2.5 22.600098,2.5c3.899902,0 7.5,-0.299927 11,-1c2.299805,-0.5 4.600098,-1.099854 6.799805,-1.799927c4,-1.200073 8.200195,-2.400024 12.600098,-2.5c0.300293,0 0.5,0 0.800293,0c6.5,0 11,2.400024 14.099609,7.599976c1,1.600098 1.5,3.400024 1.5,5.100098c0.100098,2.299927 -0.699707,4.5 -2.299805,6.199951c-1.600098,1.800049 -4,3.099976 -6.899902,3.699951c-2.200195,0.5 -4.5,0.600098 -6.700195,0.699951c-1.5,0.100098 -3,0.100098 -4.5,0.300049c-4.600098,0.600098 -9.199707,1.600098 -13.600098,3c-1.099609,0.300049 -2.099609,0.699951 -3,1.300049c-2,1.599976 -3.099609,5 -4,8l-0.299805,1c-2.399902,8 -3.799805,16.5 -4.899902,23.800049c-0.200195,1.299927 -0.399902,3 -0.700195,4.899902c-1.100098,7.5 -3.699707,24.800049 -2.799805,27.199951c0.199707,0.200073 0.699707,0.400146 2.100098,0.400146c1.099609,0 2.399902,-0.200073 3.599609,-0.300049c1.300293,-0.199951 2.5,-0.300049 3.600098,-0.300049c1,0 1.700195,0.100098 2.300293,0.400024c4,1.700073 3.699707,8.099976 2.299805,12.099976c-1.5,4.300049 -6.200195,4.699951 -10,5c-1.600098,0.100098 -3.200195,0.300049 -4.100098,0.699951c-2.199707,1 -3,15.800049 -3.5,22.900146c-0.100098,2.599854 -0.299805,5 -0.399902,7c-1.5,18.799927 -5,33.599854 -10.399902,45.399902c-9.399902,20.100098 -27.399902,34.5 -46.899902,37.600098c-2.5,0.299927 -5.200195,0.5 -7.900391,0.5z" class="st1"/>
      <path id="svg_53" d="m4156.193359,992.511719c5.700195,0 10,1.800049 13,7c0.800293,1.400146 1.300293,3 1.399902,4.5c0.100098,1.900146 -0.599609,3.800049 -2,5.300049c-1.599609,1.800049 -3.899902,2.800049 -6.299805,3.300049c-3.600098,0.800049 -7.399902,0.5 -11,1c-4.700195,0.599976 -9.299805,1.599976 -13.799805,3c-1.200195,0.399902 -2.400391,0.699951 -3.400391,1.5c-2.599609,2 -3.699707,6.300049 -4.699707,9.699951c-2.399902,7.800049 -3.800293,15.900024 -4.899902,24c-1.300293,8.800049 -4.900391,31.100098 -3.300293,33c0.600098,0.699951 1.700195,0.900024 3.100098,0.900024c2.200195,0 5.100098,-0.599976 7.200195,-0.599976c0.699707,0 1.299805,0.099976 1.799805,0.300049c3.200195,1.399902 2.799805,7.199951 1.600098,10.5c-1.899902,5.299927 -10,3.5 -13.399902,5c-3.700195,1.599854 -3.900391,21.399902 -4.600098,30.899902c-1.200195,15.100098 -3.899902,31.199951 -10.300293,44.900024c-8.5,18.200073 -25.399902,33.700073 -46,36.900024c-2.599609,0.399902 -5.299805,0.599976 -7.899902,0.599976c-1.100098,0 -2.199707,0 -3.199707,-0.099976c-13.300293,-0.900024 -24.300293,-7.100098 -30.900391,-17.400024c-5.799805,-9.099976 -6.799805,-21.299927 -2.599609,-31.700073c2.699707,-6.699951 9.099609,-13.399902 16.699707,-17.5c4.399902,-2.399902 9.300293,-3.799927 14,-3.799927c1.399902,0 2.700195,0.099976 4.100098,0.400024c0.700195,0.099976 1.200195,0.300049 1.5,0.599976c0.799805,0.599976 0.899902,2 0.600098,3.099976c-0.399902,1.400024 -1.5,2.5 -2.700195,3.800049c-5.399902,5.800049 -8.399902,14.899902 -2.399902,21.399902c2.600098,2.800049 6.700195,4.300049 11.5,4.300049l0.200195,0c8.799805,-0.099976 16.599609,-5.399902 22.699707,-15.300049c5.5,-9 9.5,-18.899902 11.5,-29.299927c1,-5.400024 3.700195,-25.400024 1.5,-28.900024c-0.5,-0.800049 -1.5,-1.099976 -2.699707,-1.099976c-1.900391,0 -4.400391,0.700073 -6.600098,0.700073c-2.5,0 -4.600098,-0.900146 -4.800293,-5c-0.299805,-5 0.900391,-8 4.800293,-8.800049c3.600098,-0.699951 8.399902,-1.199951 10.699707,-4.699951c1.400391,-2.200073 3.200195,-30.200073 5.900391,-40.900146c1.699707,-6.5 3.799805,-12.899902 5.599609,-19.399902c1.900391,-7.100098 -3.5,-9.699951 -10.699707,-9.699951c-8.600098,0 -19.5,3.599854 -23,7.199951c-5.399902,5.699951 -7.300293,15.699951 -3.700195,22.800049c3.100098,6 9.899902,6.099854 12.800293,11.199951c1.399902,2.5 0.5,5.699951 -0.600098,8.399902c-3.600098,8.600098 -17.800293,20.100098 -28.300293,21c-0.399902,0 -0.899902,0.100098 -1.299805,0.100098c-4.299805,0 -8.600098,-1.900024 -12.399902,-5.600098c-15.600098,-15.599854 -13.5,-45.199951 -3.200195,-62.899902c4.700195,-8.199951 11.600098,-15.300049 20,-19.5c7.300293,-3.699951 14.600098,-4.900024 22,-4.900024c14.899902,0 30.100098,5 45.300293,5c3.699707,0 7.5,-0.299927 11.199707,-1.099976c6.5,-1.300049 12.5,-4.100098 19.200195,-4.300049c0.299805,0.199951 0.5,0.199951 0.799805,0.199951m0,-2.5c-0.299805,0 -0.600098,0 -0.899902,0c-4.600098,0.100098 -8.799805,1.400146 -12.899902,2.5c-2.300293,0.700073 -4.5,1.300049 -6.700195,1.800049c-3.399902,0.699951 -6.899902,1 -10.699707,1c-7.400391,0 -15,-1.300049 -22.400391,-2.5c-7.5,-1.199951 -15.199707,-2.5 -22.799805,-2.5c-8.700195,0 -16.200195,1.699951 -23.100098,5.199951c-8.5,4.300049 -15.699707,11.400146 -21,20.5c-11,19 -12.699707,49.600098 3.600098,65.900146c4.100098,4.099854 9.100098,6.299927 14.100098,6.299927c0.5,0 1.100098,0 1.5,-0.099976c11.699707,-1 26.5,-13.300049 30.399902,-22.600098c1.200195,-2.799927 2.5,-7 0.399902,-10.599854c-1.699707,-3 -4.399902,-4.5 -6.799805,-5.900146c-2.5,-1.399902 -4.600098,-2.599854 -5.899902,-5.199951c-3,-5.899902 -1.600098,-14.899902 3.299805,-20c2.799805,-2.899902 12.799805,-6.399902 21.100098,-6.399902c3.899902,0 6.799805,0.799927 7.899902,2.299927c0.299805,0.400024 1.100098,1.400024 0.299805,4.200073c-0.799805,3.099854 -1.799805,6.299927 -2.699707,9.299927c-1,3.299927 -2,6.700073 -2.899902,10.099976c-1.5,5.900024 -2.700195,16.400024 -3.700195,25.600098c-0.700195,5.899902 -1.5,13.199951 -2,14.599854c-1.5,2.100098 -4.799805,2.700073 -7.700195,3.200073c-0.5,0.099976 -0.899902,0.200073 -1.299805,0.299927c-7.399902,1.5 -7,9 -6.799805,11.400146c0.299805,4.799927 2.899902,7.399902 7.299805,7.399902c1.299805,0 2.600098,-0.199951 3.899902,-0.399902c1,-0.200073 2,-0.300049 2.700195,-0.300049c0.299805,0 0.5,0 0.600098,0.099976c1.299805,2.799927 -0.400391,19.5 -1.900391,27c-1.899902,9.900024 -5.699707,19.5 -11.199707,28.400024c-5.600098,9.099976 -12.700195,14 -20.600098,14.099976l-0.200195,0c-4.099609,0 -7.599609,-1.299927 -9.699707,-3.5c-4.899902,-5.299927 -2.200195,-13 2.399902,-18c1.299805,-1.5 2.600098,-2.900024 3.200195,-4.700073c0.599609,-1.799927 0.399902,-4.399902 -1.400391,-5.799927c-0.599609,-0.5 -1.399902,-0.799927 -2.5,-1c-1.5,-0.299927 -3,-0.400024 -4.599609,-0.400024c-4.900391,0 -10.100098,1.400024 -15.200195,4.100098c-8.100098,4.299927 -14.899902,11.5 -17.799805,18.699951c-4.5,11.099976 -3.400391,24.099976 2.799805,33.899902c7,11.100098 18.600098,17.700073 32.799805,18.600098c1.100098,0.099976 2.300293,0.099976 3.400391,0.099976c2.699707,0 5.5,-0.200073 8.299805,-0.700073c20,-3.099854 38.299805,-17.799927 47.799805,-38.299927c5.5,-11.900024 9,-26.900024 10.600098,-45.799927c0.200195,-2 0.300293,-4.400146 0.399902,-7c0.400391,-6.400146 1.100098,-19.700073 2.900391,-21.900146c0.799805,-0.299927 2.199707,-0.399902 3.5,-0.5c3.899902,-0.299927 9.199707,-0.799927 11,-5.899902c1.5,-4.199951 2,-11.600098 -3,-13.699951c-0.800293,-0.300049 -1.600098,-0.5 -2.800293,-0.5c-1.199707,0 -2.5,0.199951 -3.699707,0.299927c-1.200195,0.099976 -2.400391,0.299927 -3.400391,0.299927c-0.5,0 -0.799805,0 -1,-0.099854c-0.399902,-3.800049 1.900391,-19.300049 2.900391,-26.100098c0.299805,-1.899902 0.5,-3.5 0.699707,-4.899902c1,-7.200073 2.399902,-15.600098 4.800293,-23.600098c0.099609,-0.300049 0.199707,-0.699951 0.299805,-1c0.799805,-2.699951 1.799805,-6.099976 3.5,-7.399902c0.700195,-0.5 1.5,-0.800049 2.600098,-1.100098c4.399902,-1.300049 8.899902,-2.300049 13.399902,-2.899902c1.399902,-0.200073 2.799805,-0.300049 4.299805,-0.300049c2.300293,-0.100098 4.600098,-0.199951 6.900391,-0.699951c3.099609,-0.700073 5.699707,-2.100098 7.5,-4.100098c1.799805,-2 2.799805,-4.399902 2.699707,-7.099976c-0.100098,-1.900024 -0.600098,-3.900024 -1.699707,-5.700073c-3,-5.399902 -7.800293,-8 -14.800293,-8l0,0z" class="st2"/>
     </g>
     <g id="svg_54">
      <path id="svg_55" d="m4469.193359,1215.611816c-0.599609,0 -1.299805,0 -2,-0.100098c-9.299805,-0.599976 -17,-5 -21.599609,-12.300049c-0.300293,-0.399902 -0.5,-0.899902 -0.800293,-1.399902c-0.100098,-0.100098 -0.100098,-0.199951 -0.199707,-0.300049l-0.100098,-0.099976c-0.200195,-0.299927 -0.300293,-0.599976 -0.5,-1c-0.100098,-0.200073 -0.100098,-0.299927 -0.200195,-0.5c-0.199707,-0.400024 -0.299805,-0.700073 -0.399902,-1c-0.100098,-0.200073 -0.100098,-0.400024 -0.200195,-0.599976c-0.099609,-0.300049 -0.199707,-0.699951 -0.299805,-1c0,0 -0.100098,-0.400024 -0.200195,-0.5c-0.099609,-0.400024 -0.199707,-0.800049 -0.299805,-1.100098l-0.100098,-0.399902c-0.100098,-0.5 -0.199707,-1.100098 -0.299805,-1.600098l0,-0.399902c0,-0.400024 -0.100098,-0.800049 -0.100098,-1.199951c0,-0.100098 0,-0.600098 0,-0.600098c0,-0.300049 0,-0.699951 0,-1l0,-0.199951l0,-0.300049c0,-0.699951 0,-1.399902 0.100098,-2.099976l0,-0.200073c0.100098,-0.599854 0.199707,-1.299927 0.299805,-2l0.100098,-0.399902c0.100098,-0.699951 0.299805,-1.300049 0.5,-2l0.100098,-0.400024c0.199707,-0.799927 0.5,-1.400024 0.699707,-2.099976c2.300293,-5.699951 8.200195,-11.199951 14.700195,-13.699951l1.399902,-0.5l0.200195,1.5c0.100098,0.899902 0.199707,1.699951 0.399902,2.599854c0.5,3.5 0.899902,7.200073 2.5,10.100098c1.899902,3.5 5.799805,7.199951 10.899902,7.199951c0.200195,0 0.5,0 0.700195,0c7.199707,-0.5 13.299805,-7.5 16.199707,-13.300049c3.800293,-7.5 5.800293,-16.599854 5.700195,-25.699951c-2.600098,2.100098 -7.899902,4.800049 -17.200195,4.800049c-3.399902,0 -7.099609,-0.400024 -11.099609,-1.100098c-3.200195,-0.599854 -11.900391,-5 -13.300293,-5.899902c-1.5,-0.900024 -2.799805,-1.699951 -4.299805,-2.400024c-1.399902,-0.599976 -2.600098,-1 -3.800293,-1.200073c-0.599609,-0.099854 -1.199707,-0.099854 -1.799805,-0.099854c-3.799805,0 -7.5,1.799927 -11.100098,3.5c-0.799805,0.399902 -1.600098,0.799927 -2.299805,1.099854c-3.700195,1.700073 -9.5,3.700073 -15.700195,3.700073c-2.199707,0 -4.299805,-0.299927 -6.399902,-0.700073c-6.399902,-1.599854 -11.799805,-5.899902 -14.299805,-11.299927c-2.600098,-5.700073 -1.300293,-12.299927 -0.100098,-18.700073c0.299805,-1.299927 0.5,-2.599854 0.699707,-3.899902c0.700195,-4.5 3.900391,-20.100098 5.200195,-26.600098l0.5,-2.299927l1.600098,1.700073c1.699707,1.799927 2.199707,2.099854 2.299805,2.199951c1.5,1.099976 3.200195,2 5.100098,2.899902c3.299805,1.5 6.600098,2.200073 9.700195,2.200073c0.899902,0 1.699707,-0.099976 2.599609,-0.200073c2.400391,-0.399902 5.200195,-1.399902 8.100098,-3.099854l2.300293,-1.300049l-0.5,2.599976c-1.300293,7.200073 -4,23 -4.900391,28c-0.699707,4.299927 0.400391,7.799927 3.200195,9.400024c0.899902,0.5 1.899902,0.800049 2.899902,0.800049c2.700195,0 5.700195,-1.700073 7.399902,-4.100098c1.800293,-2.599976 2.600098,-5.800049 3.300293,-8.800049l0.100098,-0.399902c0.099609,-0.5 0.299805,-1.100098 0.399902,-1.600098c1.5,-6 4.100098,-11.5 7.799805,-16.599854c8.399902,-11.600098 21,-18.600098 33.600098,-18.600098l0.399902,0l0.300293,0c4,0.100098 8.199707,0.800049 12,1.5c1.5,0.300049 3,0.5 4.599609,0.800049c3.200195,0.5 5.700195,0.699951 8,0.699951c1.900391,0 3.800293,-0.199951 5.600098,-0.5c1.100098,-0.199951 1.899902,-0.399902 2.700195,-0.699951l0.600098,-0.199951c1.799805,-0.600098 3.599609,-1.200073 5.099609,-1.200073c1.200195,0 2.200195,0.400024 2.900391,1.200073c0.699707,0.799927 0.899902,1.899902 1.099609,2.699951c0.800293,4.599976 -0.5,9.5 -1.799805,14.199951c-0.200195,0.699951 -0.399902,1.5 -0.600098,2.300049c-1.600098,5.699951 -3.600098,12.899902 -1.299805,17.699951c1.899902,4 7.399902,7.5 11.299805,9.699951c4.5,2.600098 9.600098,4.300049 14.700195,4.900146c0.699707,0.099854 1.299805,0.099854 1.799805,0.099854c1.600098,0 2.700195,-0.299927 3.399902,-1c0.900391,-0.799927 1.300293,-2.199951 1,-3.699951c-0.699707,-4.399902 -4.899902,-8.300049 -8.199707,-11.5c-0.399902,-0.399902 -0.800293,-0.699951 -1.100098,-1.099976c-4.799805,-4.700073 -9.399902,-9 -9.899902,-15.599976c-0.700195,-8.800049 7.899902,-16.300049 16.799805,-19c4.300293,-1.300049 8.700195,-2 13.200195,-2c2.799805,0 5.600098,0.300049 8.299805,0.800049c5.300293,1 9.399902,2.899902 12.200195,5.699951c3.399902,3.399902 4.699707,8.399902 3.199707,12.199951c-1.199707,3 -4.299805,5.100098 -7.5,5.100098l-0.199707,0c-3.700195,-0.100098 -5.700195,-3.300049 -7.300293,-6.600098c-0.799805,-1.599976 -3.199707,-6.399902 -6.199707,-6.399902c-0.5,0 -1,0.099854 -1.5,0.399902c-2.700195,1.300049 -2.800293,5.800049 -1.700195,8.100098c2.100098,4.5 6.200195,7.799927 10.200195,11c1.699707,1.399902 3.299805,2.699951 4.799805,4.099854c8,7.700073 9.100098,18.200073 2.5,25.5c-6,6.700073 -15.899902,11.300049 -26.600098,12.400146c-1.599609,0.199951 -3.099609,0.199951 -4.699707,0.199951c-6.700195,0 -13.5,-1.400024 -19.600098,-4.100098c-3.5,-1.5 -7.200195,-3.399902 -10.700195,-5.5c-0.899902,-0.5 -5.099609,-3.599854 -7.599609,-5.399902c-0.600098,5.399902 -2.300293,18.899902 -4.400391,28.199951c-3.099609,13.5 -7.199707,23.600098 -13,31.900024c-0.699707,1 -1.5,2 -2.5,3.200073c-2,2.399902 -4.299805,4.5 -6.899902,6.299927c-6,4.099976 -13.199707,6.299927 -20.399902,6.299927l-0.200195,-0.099854zm22.600098,-118.700073c-0.600098,0 -1.299805,0.099976 -1.899902,0.299927c-4,1.200073 -6.399902,5.800049 -7.899902,9.100098c-2.200195,5.099976 -3.600098,10.599976 -3.900391,16.199951c-0.199707,3.900024 -0.699707,11.900024 4,13.5c0.400391,0.100098 0.700195,0.199951 1.100098,0.199951c1.300293,0 2.800293,-0.799927 3.899902,-2.099854c4.300293,-4.900146 11,-27.800049 10.200195,-32.600098l0,-0.199951c-0.299805,-1.600098 -1.200195,-2.900024 -2.5,-3.699951c-0.899902,-0.5 -2,-0.700073 -3,-0.700073z" class="st1"/>
      <path id="svg_56" d="m4569.193359,1083.711792c2.700195,0 5.400391,0.200073 8,0.799927c5,1 8.900391,2.700073 11.5,5.300049c3.100098,3 4.300293,7.5 2.900391,10.900024c-1,2.5 -3.700195,4.299927 -6.300293,4.299927l-0.199707,0c-2.800293,-0.099854 -4.5,-2.399902 -6.200195,-5.899902c-0.899902,-1.900024 -3.5,-7.100098 -7.299805,-7.100098c-0.700195,0 -1.300293,0.200073 -2.100098,0.5c-3.399902,1.700073 -3.600098,6.900146 -2.300293,9.800049c2.200195,4.699951 6.400391,8.100098 10.5,11.400024c1.700195,1.400024 3.300293,2.700073 4.700195,4c6.799805,6.5 9.200195,16.200073 2.5,23.799927c-6.299805,7.100098 -16.600098,11 -25.799805,11.900146c-1.5,0.199951 -3.100098,0.199951 -4.600098,0.199951c-6.600098,0 -13.100098,-1.400024 -19.100098,-4c-3.600098,-1.600098 -7.200195,-3.5 -10.5,-5.400024c-1.200195,-0.700073 -9.299805,-6.599976 -9.299805,-6.599976c0,0 -2,18.599976 -4.600098,30.199951c-3,13.300049 -7.100098,23.300049 -12.800293,31.5c-0.699707,1 -1.5,2 -2.399902,3.100098c-1.899902,2.299927 -4.199707,4.299927 -6.699707,6c-5.700195,3.899902 -12.700195,6.099854 -19.700195,6.099854l-0.200195,0c-0.599609,0 -1.299805,0 -1.899902,-0.099854c-8.899902,-0.600098 -16.299805,-4.700073 -20.699707,-11.700073c-0.300293,-0.400024 -0.5,-0.900024 -0.700195,-1.299927c-0.100098,-0.100098 -0.100098,-0.300049 -0.200195,-0.400146c-0.199707,-0.299927 -0.299805,-0.599854 -0.399902,-0.899902c-0.100098,-0.199951 -0.100098,-0.300049 -0.199707,-0.5c-0.100098,-0.300049 -0.200195,-0.600098 -0.400391,-0.900024c-0.099609,-0.200073 -0.099609,-0.400024 -0.199707,-0.5c-0.100098,-0.299927 -0.200195,-0.599976 -0.300293,-0.900024c-0.099609,-0.199951 -0.099609,-0.300049 -0.199707,-0.5c-0.100098,-0.399902 -0.200195,-0.699951 -0.300293,-1.099976c0,-0.099976 -0.099609,-0.299927 -0.099609,-0.400024c-0.100098,-0.5 -0.200195,-1 -0.300293,-1.5c0,-0.099976 0,-0.199951 0,-0.300049c0,-0.399902 -0.100098,-0.799927 -0.100098,-1.199951c0,-0.199951 0,-0.399902 0,-0.5c0,-0.300049 0,-0.699951 0,-1l0,-0.300049l0,-0.199951c0,-0.699951 0,-1.300049 0.100098,-2l0,-0.199951c0.100098,-0.600098 0.200195,-1.300049 0.300293,-1.900024c0,-0.099976 0,-0.200073 0.099609,-0.400024c0.100098,-0.699951 0.300293,-1.300049 0.5,-1.899902c0,-0.100098 0.100098,-0.300049 0.100098,-0.400146c0.200195,-0.699951 0.399902,-1.299927 0.700195,-2c2.100098,-5.299927 7.699707,-10.599854 14,-13c0.699707,4.300049 0.899902,9.300049 3,13.100098c2.399902,4.399902 6.799805,7.899902 11.899902,7.899902c0.299805,0 0.5,0 0.799805,0c7.700195,-0.5 14,-7.599854 17.300293,-14c4.100098,-8.099854 6,-17.599854 5.799805,-26.599854c0,-0.100098 0,-0.200073 0,-0.300049l-0.100098,-2.300049c0,0 -4.299805,6.5 -18.399902,6.5c-3.100098,0 -6.699707,-0.300049 -10.799805,-1.099976c-2.899902,-0.5 -11.300293,-4.799927 -12.800293,-5.700073c-1.399902,-0.899902 -2.899902,-1.699951 -4.399902,-2.399902c-1.299805,-0.600098 -2.600098,-1.100098 -4.100098,-1.300049c-0.699707,-0.099976 -1.299805,-0.099976 -2,-0.099976c-4.099609,0 -7.899902,1.799927 -11.599609,3.599976c-0.800293,0.400024 -1.5,0.699951 -2.300293,1.100098c-3.899902,1.799927 -9.299805,3.599854 -15.199707,3.599854c-2,0 -4,-0.199951 -6.100098,-0.699951c-6,-1.5 -11.100098,-5.5 -13.399902,-10.599976c-2.400391,-5.299927 -1.200195,-11.700073 0,-17.900024c0.299805,-1.300049 0.5,-2.699951 0.699707,-3.899902c0.700195,-4.400146 3.899902,-20 5.200195,-26.600098c1.100098,1.100098 2.100098,2.100098 2.399902,2.300049c1.5,1.099976 3.299805,2.099976 5.299805,3c3.5,1.5 7,2.300049 10.200195,2.300049c0.899902,0 1.799805,-0.100098 2.700195,-0.200073c2.599609,-0.400024 5.5,-1.5 8.5,-3.200073c-1.300293,7.200073 -4,23 -4.900391,28c-0.799805,4.900146 0.600098,8.900146 3.800293,10.700073c1.100098,0.599976 2.299805,0.900024 3.600098,0.900024c3.299805,0 6.599609,-2 8.399902,-4.699951c1.899902,-2.800049 2.699707,-6.100098 3.5,-9.200073c0.199707,-0.700073 0.299805,-1.299927 0.5,-2c1.5,-5.900024 4.199707,-11.400024 7.600098,-16.200073c7.899902,-10.899902 20.099609,-18 32.599609,-18c0.100098,0 0.300293,0 0.400391,0l0.299805,0c3.899902,0.100098 7.899902,0.800049 11.799805,1.400146c1.5,0.299927 3,0.5 4.600098,0.799927c2.700195,0.400024 5.5,0.700073 8.200195,0.700073c2,0 3.899902,-0.200073 5.799805,-0.600098c1,-0.199951 1.899902,-0.399902 2.899902,-0.699951l0.600098,-0.199951c1.800293,-0.600098 3.5,-1.100098 4.700195,-1.100098c0.799805,0 1.5,0.199951 2,0.699951c0.5,0.5 0.699707,1.400146 0.799805,2.100098c0.700195,4.399902 -0.5,9.099976 -1.799805,13.699951c-1.600098,6.100098 -4.700195,14.900024 -1.899902,20.900024c2.099609,4.299927 7.799805,8 11.799805,10.299927c4.600098,2.700073 9.799805,4.400146 15.200195,5.100098c0.599609,0.099976 1.299805,0.099976 2,0.099976c1.599609,0 3.199707,-0.299927 4.299805,-1.400024c1.299805,-1.199951 1.700195,-3.099976 1.399902,-4.800049c-0.899902,-5.299927 -6.100098,-9.799927 -9.699707,-13.299927c-4.600098,-4.5 -9,-8.700073 -9.5,-14.900024c-0.700195,-8.199951 7.5,-15.099976 15.899902,-17.699951c4,-1.300049 8.299805,-1.900024 12.699707,-1.900024m-86.100098,53.799927c1.900391,0 3.700195,-1.199951 4.900391,-2.5c4.5,-5.099854 11.399902,-28.5 10.5,-33.599854l0,-0.100098c-0.400391,-2 -1.5,-3.599976 -3.100098,-4.599976c-1.100098,-0.700073 -2.300293,-1 -3.600098,-1c-0.799805,0 -1.5,0.099976 -2.299805,0.299927c-4.5,1.400146 -7.100098,6.200073 -8.700195,9.800049c-2.299805,5.199951 -3.700195,10.800049 -4,16.699951c-0.299805,4.200073 -0.799805,12.800049 4.799805,14.800049c0.5,0.099976 1,0.199951 1.5,0.199951m86.100098,-56.299927c-4.599609,0 -9.199707,0.700073 -13.599609,2.099976c-9.400391,2.900024 -18.400391,10.800049 -17.600098,20.300049c0.600098,7.099976 5.5,11.800049 10.299805,16.399902c0.399902,0.300049 0.700195,0.700073 1.100098,1.100098c3.200195,3.099976 7.200195,6.899902 7.799805,10.800049c0.200195,1.099854 -0.099609,2.099854 -0.599609,2.599854c-0.5,0.5 -1.400391,0.700073 -2.600098,0.700073c-0.5,0 -1,0 -1.700195,-0.099976c-4.899902,-0.600098 -9.899902,-2.199951 -14.199707,-4.800049c-2.200195,-1.300049 -8.800293,-5.099976 -10.800293,-9.199951c-2.100098,-4.400024 -0.100098,-11.300049 1.399902,-16.800049c0.200195,-0.800049 0.400391,-1.599976 0.600098,-2.300049c1.300293,-4.799927 2.600098,-9.799927 1.800293,-14.699951c-0.200195,-0.899902 -0.5,-2.300049 -1.400391,-3.300049c-0.599609,-0.699951 -1.799805,-1.599854 -3.799805,-1.599854c-1.700195,0 -3.600098,0.599854 -5.5,1.199951l-0.600098,0.199951c-0.699707,0.199951 -1.600098,0.400024 -2.600098,0.699951c-1.699707,0.300049 -3.5,0.5 -5.399902,0.5c-2.299805,0 -4.699707,-0.199951 -7.899902,-0.699951c-1.5,-0.199951 -3,-0.5 -4.5,-0.699951c-3.799805,-0.699951 -8,-1.400024 -12.100098,-1.5l-0.299805,0l-0.100098,0l-0.100098,0l-0.100098,0l-0.299805,0c-13,0 -26,7.099976 -34.600098,19.099976c-3.699707,5.200073 -6.399902,10.900024 -8,17c-0.100098,0.599976 -0.299805,1.099976 -0.399902,1.700073l-0.100098,0.299927c-0.699707,3.099976 -1.399902,6 -3.100098,8.400024c-1.5,2.099976 -4.099609,3.599976 -6.399902,3.599976c-0.799805,0 -1.600098,-0.200073 -2.299805,-0.599976c-2.300293,-1.300049 -3.200195,-4.300049 -2.600098,-8.100098c0.899902,-5 3.600098,-20.799927 4.899902,-28l0.899902,-5.199951l-4.599609,2.600098c-2.800293,1.599854 -5.400391,2.599854 -7.700195,2.899902c-0.799805,0.100098 -1.600098,0.199951 -2.399902,0.199951c-2.899902,0 -6.100098,-0.699951 -9.200195,-2.099854c-1.799805,-0.800049 -3.399902,-1.700073 -4.799805,-2.700073c0,0 -0.5,-0.400024 -2.100098,-2.099976l-3.299805,-3.300049l-0.900391,4.600098c-1.299805,6.5 -4.5,22.199951 -5.299805,26.699951c-0.200195,1.300049 -0.5,2.599976 -0.700195,3.899902c-1.299805,6.600098 -2.599609,13.400146 0.200195,19.400146c2.600098,5.799927 8.399902,10.399902 15.100098,12c2.100098,0.5 4.399902,0.799927 6.699707,0.799927c6.5,0 12.400391,-2.099976 16.200195,-3.799927c0.799805,-0.400146 1.600098,-0.700073 2.399902,-1.100098c3.600098,-1.699951 7,-3.399902 10.600098,-3.399902c0.600098,0 1.100098,0 1.600098,0.099854c1.100098,0.200073 2.199707,0.5 3.399902,1.100098c1.299805,0.599976 2.600098,1.399902 4.100098,2.300049c1.600098,1 10.399902,5.399902 13.699707,6c4,0.799927 7.800293,1.099854 11.300293,1.099854c7.699707,0 12.699707,-1.799927 15.899902,-3.699951c-0.200195,8.100098 -2.200195,16.100098 -5.600098,22.800049c-2.799805,5.5 -8.5,12.199951 -15.199707,12.699951c-0.200195,0 -0.400391,0 -0.600098,0c-4.5,0 -8,-3.399902 -9.800293,-6.599976c-1.5,-2.599976 -1.899902,-6.200073 -2.399902,-9.599976c-0.100098,-0.900024 -0.199707,-1.800049 -0.399902,-2.699951l-0.5,-3.100098l-2.899902,1.100098c-6.800293,2.599854 -13,8.399902 -15.399902,14.399902c-0.300293,0.600098 -0.5,1.300049 -0.800293,2.199951l0,0.100098c0,0.099976 -0.100098,0.199951 -0.100098,0.300049c-0.199707,0.699951 -0.399902,1.399902 -0.5,2.099854c0,0.100098 0,0.200073 -0.099609,0.300049l0,0.100098c-0.100098,0.699951 -0.200195,1.399902 -0.300293,2.099854l0,0.100098l0,0l0,0c-0.100098,0.699951 -0.100098,1.399902 -0.100098,2.199951l0,0.199951l0,0.100098l0,0.099976l0,0.299927c0,0.300049 0,0.700073 0,1l0,0.100098c0,0.199951 0,0.300049 0,0.5c0,0.399902 0.100098,0.800049 0.100098,1.300049l0,0.099854c0,0.100098 0,0.200073 0,0.300049c0.100098,0.600098 0.200195,1.100098 0.300293,1.600098c0,0.099854 0,0.199951 0.099609,0.299927l0,0.099976c0.100098,0.400024 0.200195,0.800049 0.300293,1.199951c0,0.100098 0.100098,0.300049 0.100098,0.400146l0,0.099854c0.099609,0.300049 0.199707,0.700073 0.299805,1c0.100098,0.200073 0.100098,0.400146 0.200195,0.600098c0.099609,0.300049 0.299805,0.699951 0.399902,1c0.100098,0.199951 0.199707,0.399902 0.199707,0.599976c0.200195,0.400024 0.300293,0.700073 0.5,1l0.100098,0.099976c0.100098,0.100098 0.100098,0.199951 0.200195,0.400024c0.299805,0.5 0.5,1 0.799805,1.400024c4.800293,7.599976 12.899902,12.199951 22.600098,12.800049c0.600098,0 1.299805,0.099854 2.100098,0.099854l0.199707,0l0,0l0,0c7.400391,0 14.900391,-2.299927 21.100098,-6.5c2.700195,-1.899902 5.100098,-4.099854 7.200195,-6.5c1,-1.199951 1.799805,-2.199951 2.5,-3.299927c5.899902,-8.400024 10,-18.700073 13.100098,-32.299927c1.899902,-8.200073 3.399902,-19.900146 4.199707,-26.200073c2.399902,1.700073 5.200195,3.799927 6,4.200073c3.5,2.099854 7.300293,4 10.800293,5.599854c6.299805,2.800049 13.299805,4.200073 20.099609,4.200073c1.600098,0 3.200195,-0.099976 4.800293,-0.200073c11,-1.099854 21.299805,-5.899902 27.399902,-12.799927c7,-7.799927 6,-19.099976 -2.600098,-27.200073c-1.5,-1.399902 -3.100098,-2.699951 -4.799805,-4.099854c-3.899902,-3.100098 -7.899902,-6.300049 -9.800293,-10.5c-0.899902,-1.900146 -0.799805,-5.600098 1.100098,-6.5c0.399902,-0.200073 0.700195,-0.300049 1,-0.300049c1,0 2.700195,1 5,5.699951c1.800293,3.699951 4.100098,7.100098 8.399902,7.300049l0.200195,0l0,0l0,0c3.600098,0 7.299805,-2.5 8.600098,-5.900024c1.699707,-4.299927 0.299805,-9.900024 -3.5,-13.599976c-3,-2.900024 -7.300293,-4.900024 -12.800293,-6c-1.799805,-0.600098 -4.699707,-0.900024 -7.5,-0.900024l0,0zm-86.100098,53.799927c-0.199707,0 -0.399902,0 -0.699707,-0.099854c-3.800293,-1.300049 -3.300293,-9 -3.100098,-12.300049c0.299805,-5.5 1.600098,-10.800049 3.799805,-15.800049c1.400391,-3.099976 3.600098,-7.399902 7.100098,-8.399902c0.5,-0.200073 1,-0.200073 1.5,-0.200073c0.899902,0 1.700195,0.200073 2.300293,0.599976c1,0.600098 1.699707,1.600098 1.899902,2.900024l0,0.099976c0.799805,4.5 -5.899902,27 -9.899902,31.600098c-0.600098,0.699951 -1.800293,1.599854 -2.900391,1.599854l0,0z" class="st2"/>
     </g>
    </g>
   </g>
  </g>
 </g>
</svg>